<?xml version="1.0" encoding="utf-8"?>
<!-- Generator: Adobe Illustrator 21.1.0, SVG Export Plug-In . SVG Version: 6.00 Build 0)  -->
<svg version="1.1" id="Layer_1" xmlns="http://www.w3.org/2000/svg" xmlns:xlink="http://www.w3.org/1999/xlink" x="0px" y="0px"
	 viewBox="0 0 160 20" style="enable-background:new 0 0 160 20;" xml:space="preserve">
<style type="text/css">
	.st0{clip-path:url(#SVGID_2_);}
	.st1{fill:#555555;}
	.st2{fill:#0E5487;}
	.st3{fill:url(#SVGID_3_);}
	.st4{enable-background:new    ;}
	.st5{fill:#010101;}
	.st6{font-family:'Verdana';}
	.st7{font-size:11px;}
	.st8{fill:#FFFFFF;}
</style>
<g>
	<defs>
		<path id="SVGID_1_" d="M5.1,0h149.8c2.8,0,5.1,1.3,5.1,3v14c0,1.7-2.3,3-5.1,3H5.1C2.3,20,0,18.7,0,17V3C0,1.3,2.3,0,5.1,0z"/>
	</defs>
	<clipPath id="SVGID_2_">
		<use xlink:href="#SVGID_1_"  style="overflow:visible;"/>
	</clipPath>
	<g class="st0">
		<path class="st1" d="M6,0h77.4v20H6c-3.3,0-6-2.7-6-6V6C0,2.7,2.7,0,6,0z"/>
		<path class="st2" d="M83.4,0H154c3.3,0,6,2.7,6,6v8c0,3.3-2.7,6-6,6H83.4V0z"/>
		
			<linearGradient id="SVGID_3_" gradientUnits="userSpaceOnUse" x1="-485.9149" y1="524.55" x2="-485.9149" y2="523.55" gradientTransform="matrix(94 0 0 -20 45756 10491)">
			<stop  offset="0" style="stop-color:#BBBBBB;stop-opacity:0.1"/>
			<stop  offset="1" style="stop-color:#000000;stop-opacity:0.1"/>
		</linearGradient>
		<path class="st3" d="M6,0h148c3.3,0,6,2.7,6,6v8c0,3.3-2.7,6-6,6H6c-3.3,0-6-2.7-6-6V6C0,2.7,2.7,0,6,0z"/>
	</g>
</g>
<g>
	<g class="st4">
		<text transform="matrix(1 0 0 1 0.646 14.5)" class="st5 st6 st7">Latest Release</text>
	</g>
	<text transform="matrix(1 0 0 1 0.646 13.5)" class="st8 st6 st7">Latest Release</text>
	<g class="st4">
		<text transform="matrix(1 0 0 1 84.7539 14.5)" class="st5 st6 st7">v18.06.22.01</text>
	</g>
	<text transform="matrix(1 0 0 1 84.7539 13.5)" class="st8 st6 st7">v18.06.22.01</text>
</g>
</svg>
